<?xml version="1.0" encoding="UTF-8"?>
<svg width="90px" height="90px" viewBox="0 0 90 90" version="1.1" xmlns="http://www.w3.org/2000/svg" xmlns:xlink="http://www.w3.org/1999/xlink">
    <!-- Generator: Sketch 49.3 (51167) - http://www.bohemiancoding.com/sketch -->
    <title>Oval</title>
    <desc>Created with Sketch.</desc>
    <defs></defs>
    <g id="Page-1" stroke="none" stroke-width="1" fill="none" fill-rule="evenodd">
        <circle id="Oval" fill="#FFFFFF" cx="45" cy="45" r="45"></circle>
        <circle id="Oval" stroke="#2D3E50" stroke-width="2" fill="#FFFFFF" cx="45" cy="45" r="38"></circle>
        <path d="M41.372,56 L41.372,44.848 C41.372,42.774 40.454,41.448 38.346,41.448 C36.646,41.448 34.844,42.672 33.994,43.964 L33.994,56 L31.444,56 L31.444,44.848 C31.444,42.774 30.56,41.448 28.418,41.448 C26.752,41.448 24.984,42.672 24.1,43.998 L24.1,56 L21.55,56 L21.55,39.578 L24.1,39.578 L24.1,41.958 C24.78,40.904 26.99,39.17 29.404,39.17 C31.92,39.17 33.348,40.53 33.824,42.23 C34.742,40.734 36.952,39.17 39.332,39.17 C42.324,39.17 43.922,40.836 43.922,44.134 L43.922,56 L41.372,56 Z M48.3918143,56 L48.3918143,41.822 L45.6718143,41.822 L45.6718143,39.578 L48.3918143,39.578 L48.3918143,38.32 C48.3918143,34.92 50.2958143,32.982 53.1518143,32.982 C54.1038143,32.982 54.9878143,33.152 55.6338143,33.56 L54.9878143,35.464 C54.5798143,35.226 54.1038143,35.09 53.5258143,35.09 C51.8598143,35.09 50.9418143,36.246 50.9418143,38.32 L50.9418143,39.578 L54.2738143,39.578 L54.2738143,41.822 L50.9418143,41.822 L50.9418143,56 L48.3918143,56 Z M55.0036286,47.772 C55.0036286,42.91 58.3016286,39.17 63.1976286,39.17 C66.1896286,39.17 67.9576286,40.394 69.2156286,42.026 L67.5156286,43.59 C66.4276286,42.094 65.0336286,41.448 63.3336286,41.448 C59.8316286,41.448 57.6556286,44.134 57.6556286,47.772 C57.6556286,51.41 59.8316286,54.13 63.3336286,54.13 C65.0336286,54.13 66.4276286,53.45 67.5156286,51.988 L69.2156286,53.552 C67.9576286,55.184 66.1896286,56.408 63.1976286,56.408 C58.3016286,56.408 55.0036286,52.668 55.0036286,47.772 Z" id="mfc" fill="#2D3E50"></path>
    </g>
</svg>