<?xml version="1.0" encoding="UTF-8"?>
<svg width="60px" height="60px" viewBox="0 0 60 60" version="1.1" xmlns="http://www.w3.org/2000/svg" xmlns:xlink="http://www.w3.org/1999/xlink">
    <!-- Generator: Sketch 48.2 (47327) - http://www.bohemiancoding.com/sketch -->
    <title>Rectangle 2</title>
    <desc>Created with Sketch.</desc>
    <defs>
        <rect id="path-1" x="0" y="0" width="1440" height="2239"></rect>
    </defs>
    <g id="Temp" stroke="none" stroke-width="1" fill="none" fill-rule="evenodd" transform="translate(-38.000000, -68.000000)">
        <g id="pexels-photo-312105" transform="translate(60.000000, 0.000000)">
            <mask id="mask-2" fill="white">
                <use xlink:href="#path-1"></use>
            </mask>
            <use id="Mask" fill="#000000" xlink:href="#path-1"></use>
        </g>
        <g id="Logo" transform="translate(38.000000, 68.000000)">
            <rect id="Rectangle-2" fill="#FFFFFF" x="0" y="0" width="60" height="60"></rect>
            <path d="M32.9861817,23.877858 C32.9861817,24.6173332 32.6438372,25.7676107 31.9591379,27.328725 L28.9190884,34.2304591 C28.4261049,35.3533659 28.1796168,36.1612989 28.1796168,36.6542824 C28.1796168,37.2020418 28.4945738,37.4759174 29.1244971,37.4759174 C30.0830761,37.4759174 31.0142531,36.9692476 31.9180562,35.9558927 C32.2467118,35.599849 32.5068936,35.4218299 32.6986094,35.4218299 C32.8629372,35.4218299 32.9450999,35.476605 32.9450999,35.5861569 C32.9450999,35.9148125 32.4795114,36.4077886 31.5483204,37.0650999 C30.1789219,38.0510669 28.9190941,38.5440429 27.7687993,38.5440429 C27.0019362,38.5440429 26.3788692,38.3454831 25.8995797,37.9483576 C25.4202902,37.551232 25.1806491,37.0377152 25.1806491,36.4077919 C25.1806491,35.7230926 25.4819122,34.6823654 26.0844476,33.2855789 L29.0834154,26.342763 C29.7955026,24.6994848 30.1515409,23.6313699 30.1515409,23.1383865 C30.1515409,22.1798075 29.7407275,21.7005252 28.9190884,21.7005252 C27.6318537,21.7005252 26.248782,22.6180084 24.7698315,24.4530025 C23.8112526,25.6306852 22.5925062,27.9586278 21.1135557,31.4369001 L18.6486507,37.2294269 C18.2652191,38.13323 17.9776497,38.5851247 17.7859339,38.5851247 C17.6489941,38.5851247 17.5394438,38.5714309 17.4572799,38.5440429 C17.0464604,38.489267 16.6904221,38.4618794 16.3891544,38.4618794 C16.2248266,38.4618794 15.9988792,38.4824201 15.7113055,38.5235021 C15.4237318,38.564584 15.2114783,38.5851247 15.0745384,38.5851247 C14.8828226,38.5851247 14.7869661,38.5166558 14.7869661,38.3797159 C14.7869661,38.297552 14.8417413,38.1469204 14.9512931,37.9278167 C15.060845,37.7087129 15.2114766,37.393756 15.4031924,36.9829364 L19.6756945,26.835744 C20.5794975,24.6994823 21.0313922,23.3027167 21.0313922,22.6454055 C21.0313922,21.8785423 20.6205788,21.4951164 19.7989397,21.4951164 C18.7308089,21.4951164 17.416206,22.3852121 15.8550917,24.1654302 C15.3894962,24.7131896 14.6637258,25.6717542 13.6777589,27.0411528 C13.3217153,27.5341362 12.8150454,28.5611697 12.1577341,30.1222841 L9.07660281,37.3526722 C8.74794716,38.1195354 8.50145912,38.5029612 8.3371313,38.5029612 C8.20019144,38.5029612 8.0906412,38.4892674 8.00847729,38.4618794 C7.57026976,38.4071035 7.31008794,38.3797159 7.22792403,38.3797159 C6.37889694,38.3797159 5.87222708,38.4207973 5.70789926,38.5029612 C5.65312332,38.5303492 5.57096064,38.5440429 5.46140875,38.5440429 C5.3244689,38.5440429 5.256,38.475574 5.256,38.3386342 C5.39293985,38.0373665 5.55726521,37.7087158 5.74898101,37.3526722 L12.2398976,22.2756697 C12.3220615,22.1387298 12.3631429,22.0428734 12.3631429,21.9880974 C12.3631429,21.7416057 12.1166548,21.6183617 11.6236713,21.6183617 C10.8568082,21.6183617 10.4733823,21.4814239 10.4733823,21.2075442 C10.4733823,21.0158284 10.6103201,20.9199719 10.8841998,20.9199719 C11.1306916,20.9199719 11.5141174,20.9473595 12.0344889,21.0021354 C12.5548603,21.0569114 12.9382861,21.0842989 13.1847779,21.0842989 C14.4172366,21.0842989 15.197782,20.9884425 15.5264377,20.7967267 L15.7729282,20.7145632 C15.937256,20.7145632 16.0194187,20.8104196 16.0194187,21.0021354 C16.0194187,21.0569114 15.8961746,21.3581745 15.6496829,21.9059339 C15.4579671,22.2893655 15.1977853,22.9603607 14.8691296,23.9189397 L14.6637209,24.4940842 C14.9102126,24.2202045 15.4305763,23.6450658 16.2248274,22.7686507 C17.4572861,21.3718642 18.9636019,20.6734814 20.74382,20.6734814 C21.8667268,20.6734814 22.660966,20.9610508 23.1265615,21.5361982 C23.592157,22.1113456 23.8523388,23.1246853 23.9071148,24.5762477 C25.6599449,22.0017785 27.5496865,20.7145632 29.5763964,20.7145632 C30.6171393,20.7145632 31.4456129,21.0021325 32.0618423,21.5772799 C32.6780716,22.1524273 32.9861817,22.919279 32.9861817,23.877858 Z M55.006,12.005232 C55.006,13.0733629 54.4993301,13.6074203 53.4859752,13.6074203 C53.1299316,13.6074203 52.8218216,13.4910232 52.5616358,13.2582254 C52.3014501,13.0254277 52.1713592,12.758399 52.1713592,12.4571313 C52.1713592,12.2380275 52.3493783,11.9230706 52.705422,11.512251 C52.8149738,11.2931473 52.869749,11.1151281 52.869749,10.9781883 C52.869749,10.293489 52.2946102,9.95114451 51.1443154,9.95114451 C49.9392447,9.95114451 48.9669864,10.4646613 48.2275111,11.4917102 C47.4880359,12.5187591 46.5568589,14.6070605 45.4339521,17.7566771 L44.3247448,20.8788902 L48.5561652,20.8788902 C48.693105,20.8515022 48.8711241,20.8378084 49.0902279,20.8378084 C49.3914956,20.8378084 49.5421272,20.98844 49.5421272,21.2897077 C49.5421272,21.5909754 49.3504142,21.7416069 48.9669827,21.7416069 L44.1604178,21.7005252 L40.5863055,31.4779818 C38.0118363,38.5166903 35.5058746,43.4327573 33.0683452,46.2263303 C32.0823782,47.3492371 31.1717419,48.1366294 30.3364088,48.588531 C29.5010756,49.0404325 28.5082766,49.2663799 27.3579818,49.2663799 C25.0300043,49.2663799 23.866033,48.4858344 23.866033,46.9247201 C23.866033,45.8018133 24.4685593,45.2403683 25.6736301,45.2403683 C26.4952692,45.2403683 26.9060826,45.5827128 26.9060826,46.2674121 C26.9060826,46.4865158 26.7691448,46.7740852 26.4952651,47.1301288 C26.3309372,47.3218446 26.2487746,47.4998638 26.2487746,47.6641916 C26.2487746,48.2667269 26.659588,48.5679901 27.4812271,48.5679901 C28.9054016,48.5679901 30.124148,47.8833011 31.1375029,46.5139026 C31.931754,45.4183837 32.9724813,43.0493598 34.2597159,39.4067597 L40.4630603,21.7826887 L39.51818,21.7826887 L37.4640925,21.8237704 C37.2449887,21.8511584 36.9985007,21.8648522 36.724621,21.8648522 C36.3959653,21.8648522 36.23164,21.7553019 36.23164,21.5361982 C36.23164,21.1253786 36.5739845,20.8788906 37.2586837,20.7967267 C37.3134597,20.7967267 37.8064358,20.8104205 38.7376268,20.8378084 L40.2165698,20.8788902 L40.7917143,20.8788902 C42.4349925,16.9624104 43.776983,14.2921233 44.8177258,12.8679488 C46.543168,10.5399713 48.720479,9.376 51.3497242,9.376 C52.445243,9.376 53.3284918,9.61564115 53.9994971,10.0949306 C54.6705024,10.5742201 55.006,11.2109809 55.006,12.005232 Z" id="mf" fill="#000000"></path>
        </g>
    </g>
</svg>