<svg height="90" viewBox="0 0 90 90" width="90" xmlns="http://www.w3.org/2000/svg"><g fill="none" fill-rule="evenodd"><circle cx="45" cy="45" fill="#fff" r="45"/><circle cx="45" cy="45" fill="#fff" r="38" stroke="#2d3e50" stroke-width="2"/><path d="m48.8085106 59v-13.9151515c0-2.5878788-1.1489361-4.2424243-3.787234-4.2424243-2.1276596 0-4.3829787 1.5272728-5.4468085 3.139394v15.0181818h-3.1914894v-13.9151515c0-2.5878788-1.106383-4.2424243-3.787234-4.2424243-2.0851064 0-4.2978724 1.5272728-5.4042553 3.1818182v14.9757576h-3.1914894v-20.4909091h3.1914894v2.969697c.8510638-1.3151515 3.6170212-3.4787879 6.6382978-3.4787879 3.1489362 0 4.9361702 1.6969697 5.5319149 3.8181818 1.1489362-1.8666666 3.9148936-3.8181818 6.893617-3.8181818 3.7446809 0 5.7446809 2.0787879 5.7446809 6.1939394v14.8060606zm8.7409775 0v-17.8626292h-3.5494881v-2.8271788h3.5494881v-1.5849335c0-4.2836041 2.4846416-6.7252585 6.2116041-6.7252585 1.2423208 0 2.3959044.2141802 3.2389078.7282127l-.8430034 2.3988183c-.5324232-.2998523-1.1535836-.4711964-1.9078498-.4711964-2.1740615 0-3.3720137 1.4564254-3.3720137 4.0694239v1.5849335h4.3481229v2.8271788h-4.3481229v17.8626292z" fill="#2d3e50" fill-rule="nonzero"/></g></svg>